<svg width="1440" height="1024" viewBox="0 0 1440 1024" fill="none" xmlns="http://www.w3.org/2000/svg">
<rect width="1440" height="1024" fill="#E5E5E5"/>
<rect width="1440" height="1024" fill="white"/>
<path d="M1130.07 857.287C1132.56 854.197 1137.49 855.11 1138.71 858.89L1145.89 881.064C1147.05 884.668 1143.94 888.209 1140.22 887.519L1118.4 883.476C1114.68 882.785 1113.04 878.365 1115.42 875.418L1130.07 857.287Z" fill="#FFF3F3"/>
<path d="M97.5323 125.181C98.2851 121.281 103.066 119.773 105.92 122.536L122.663 138.748C125.385 141.383 124.302 145.97 120.689 147.109L99.5281 153.781C95.9153 154.92 92.3972 151.784 93.1152 148.064L97.5323 125.181Z" fill="#F9EFF7"/>
<path d="M381.166 904.388C381.857 900.536 386.506 898.936 389.422 901.546L397.051 908.374C399.896 910.919 398.954 915.584 395.345 916.827L385.907 920.076C382.298 921.319 378.684 918.223 379.358 914.466L381.166 904.388Z" fill="#CFFFE8"/>
<path d="M975.999 544.33C980.075 544.444 982.308 549.126 979.832 552.365L970.771 564.217C968.501 567.186 963.895 566.706 962.286 563.332L956.434 551.065C954.825 547.691 957.351 543.81 961.087 543.914L975.999 544.33Z" fill="#CFFFE8"/>
<path d="M869.583 108.325C871.462 104.783 876.538 104.783 878.417 108.325L884.827 120.407C886.593 123.737 884.179 127.75 880.41 127.75H867.59C863.821 127.75 861.407 123.737 863.173 120.407L869.583 108.325Z" fill="#CFFFE8"/>
<ellipse cx="1175.5" cy="393.5" rx="10.5" ry="8.5" fill="#CFFFE8"/>
<ellipse cx="319" cy="554.5" rx="12" ry="12.5" fill="#CFFFE8"/>
<ellipse cx="839" cy="842.5" rx="12" ry="11.5" fill="#F9EFF7"/>
<ellipse cx="552.5" cy="344.5" rx="10.5" ry="9.5" fill="#E7ECFF"/>
<ellipse cx="1276.5" cy="669" rx="11.5" ry="10" fill="#CFFFE8"/>
<ellipse cx="881.5" cy="317" rx="9.5" ry="12" fill="#F9EFF7"/>
<path d="M184.206 348.6C187.469 347.01 190.992 350.238 189.692 353.627L188.565 356.568C188.013 358.008 188.338 359.637 189.401 360.755L191.627 363.097C194.098 365.696 192.164 369.982 188.58 369.85L185.187 369.725C183.672 369.669 182.255 370.475 181.528 371.806L179.926 374.742C178.196 377.913 173.48 377.347 172.55 373.855L171.758 370.881C171.356 369.374 170.117 368.238 168.581 367.97L165.549 367.44C161.99 366.818 161.014 362.169 164.023 360.169L166.808 358.317C168.071 357.477 168.75 355.996 168.562 354.491L168.142 351.121C167.698 347.563 171.799 345.263 174.604 347.498L177.13 349.511C178.336 350.472 179.988 350.654 181.375 349.979L184.206 348.6Z" fill="#FFF3F3"/>
<path d="M1190.95 105.848C1193.17 103.046 1197.67 104.336 1198.07 107.888L1198.14 108.544C1198.31 110.061 1199.32 111.349 1200.76 111.865L1201.23 112.033C1204.64 113.263 1204.79 118.042 1201.45 119.473L1201.17 119.593C1199.74 120.208 1198.79 121.601 1198.75 123.161L1198.74 123.566C1198.64 127.161 1194.22 128.811 1191.79 126.16L1191.3 125.631C1190.29 124.522 1188.73 124.076 1187.28 124.479L1186.59 124.67C1183.13 125.632 1180.25 121.889 1182.08 118.789L1182.28 118.44C1183.07 117.094 1183.01 115.412 1182.12 114.13L1181.94 113.88C1179.87 110.898 1182.53 106.921 1186.08 107.689L1186.56 107.794C1188.05 108.116 1189.6 107.563 1190.54 106.366L1190.95 105.848Z" fill="#FFF3F3"/>
<path d="M129.983 762.644C132.869 760.905 136.48 763.295 136.007 766.631L135.637 769.249C135.432 770.696 136.032 772.139 137.202 773.014L138.508 773.99C141.542 776.258 140.018 781.08 136.232 781.192L136.038 781.198C134.321 781.249 132.829 782.39 132.329 784.033L132.096 784.8C131.065 788.194 126.453 788.665 124.756 785.549L123.242 782.768C122.607 781.603 121.437 780.829 120.117 780.7L116.965 780.392C113.434 780.048 112.066 775.619 114.787 773.343L115.402 772.829C116.719 771.727 117.186 769.907 116.563 768.307L116.492 768.126C115.116 764.598 118.96 761.311 122.232 763.217L123.641 764.038C124.904 764.773 126.467 764.762 127.718 764.008L129.983 762.644Z" fill="#E0E7FF"/>
<path d="M634.93 624.866C638.383 623.744 641.425 627.434 639.664 630.61L638.598 632.534C637.85 633.883 637.945 635.543 638.842 636.798L640.18 638.672C642.264 641.588 639.755 645.563 636.226 644.935L633.792 644.503C632.3 644.238 630.786 644.838 629.882 646.054L628.445 647.986C626.289 650.886 621.697 649.666 621.264 646.079L621.008 643.96C620.821 642.41 619.751 641.111 618.265 640.632L616.234 639.977C612.795 638.867 612.474 634.127 615.732 632.564L617.903 631.522C619.269 630.866 620.147 629.495 620.172 627.98L620.211 625.508C620.269 621.924 624.649 620.219 627.115 622.821L628.698 624.493C629.759 625.613 631.37 626.023 632.838 625.546L634.93 624.866Z" fill="#FFF3F3"/>
<path d="M375.446 128.823C377.391 126.221 381.52 127.405 381.79 130.642V130.642C381.904 132.011 382.818 133.195 384.108 133.668V133.668C387.142 134.778 387.396 139.013 384.481 140.404L384.139 140.567C382.907 141.154 382.098 142.373 382.035 143.737L382.011 144.264C381.865 147.431 377.915 148.782 375.86 146.367V146.367C374.949 145.295 373.483 144.875 372.142 145.301V145.301C369.12 146.26 366.486 143.021 368.041 140.258L368.299 139.798C368.969 138.608 368.929 137.146 368.195 135.995L367.992 135.676C366.256 132.951 368.716 129.495 371.877 130.16V130.16C373.222 130.443 374.624 129.923 375.446 128.823V128.823Z" fill="#CFFFE8"/>
</svg>
