<svg width="1444" height="949" viewBox="0 0 1444 949" fill="none" xmlns="http://www.w3.org/2000/svg">
<rect width="1444" height="949" fill="#E5E5E5"/>
<rect width="1444" height="949" fill="white"/>
<circle cx="207.5" cy="141.5" r="6.5" fill="#FFF27B" fill-opacity="0.78"/>
<ellipse cx="1242.5" cy="134" rx="6.5" ry="7" fill="#FFF27B"/>
<ellipse cx="167" cy="818.5" rx="7" ry="7.5" fill="#FFF27B" fill-opacity="0.78"/>
<path d="M345.65 377.261C345.366 375.706 346.914 374.452 348.377 375.053L356.899 378.552C358.304 379.129 358.578 381 357.398 381.956L350.527 387.52C349.346 388.476 347.573 387.819 347.3 386.324L345.65 377.261Z" fill="#7CFFB1" fill-opacity="0.71"/>
<path d="M1109.96 840.973C1110.16 839.365 1112.09 838.645 1113.29 839.729L1120.54 846.267C1121.65 847.272 1121.3 849.1 1119.9 849.626L1111.47 852.778C1110.06 853.304 1108.6 852.152 1108.78 850.663L1109.96 840.973Z" fill="#7CFFB1" fill-opacity="0.71"/>
<path d="M857.116 109.732C857.675 108.256 859.644 107.979 860.589 109.244L866.621 117.324C867.531 118.542 866.803 120.29 865.297 120.501L855.693 121.851C854.188 122.063 853.006 120.584 853.544 119.162L857.116 109.732Z" fill="#7CFFB1" fill-opacity="0.71"/>
<path d="M1288.51 526.699C1289.98 526.249 1291.39 527.562 1291.04 529.062L1288.7 539.188C1288.36 540.688 1286.52 541.251 1285.39 540.201L1277.79 533.113C1276.66 532.063 1277.1 530.188 1278.57 529.738L1288.51 526.699Z" fill="#7CFFB1" fill-opacity="0.71"/>
<path d="M1039.06 402.873C1040.25 401.314 1042.74 402.22 1042.65 404.179L1042.58 405.716C1042.54 406.59 1043.07 407.389 1043.89 407.688L1045.44 408.251C1047.24 408.907 1047.18 411.479 1045.34 412.042L1043.59 412.582C1042.78 412.83 1042.22 413.558 1042.18 414.401L1042.1 416.169C1042.01 418.112 1039.48 418.796 1038.42 417.163L1037.62 415.935C1037.14 415.184 1036.21 414.847 1035.36 415.11L1033.96 415.54C1032.1 416.111 1030.6 413.961 1031.78 412.414L1032.85 411.008C1033.37 410.337 1033.4 409.416 1032.94 408.707L1031.94 407.165C1030.9 405.555 1032.5 403.543 1034.31 404.199L1035.85 404.762C1036.68 405.061 1037.6 404.792 1038.13 404.096L1039.06 402.873Z" fill="#FF9D9D" fill-opacity="0.66"/>
<path d="M95.7025 537.729C96.4722 535.874 99.1895 536.184 99.5221 538.164L99.6683 539.034C99.816 539.913 100.528 540.589 101.414 540.69L102.669 540.833C104.535 541.045 105.105 543.479 103.529 544.499L101.979 545.502C101.309 545.935 100.96 546.725 101.093 547.512L101.358 549.094C101.684 551.03 99.316 552.227 97.9498 550.817L97.4788 550.331C96.8144 549.646 95.758 549.526 94.9564 550.044L94.3881 550.412C92.7399 551.478 90.7022 549.779 91.4546 547.966L92.0694 546.484C92.3752 545.747 92.2136 544.899 91.6583 544.326L90.3735 543C89.0667 541.652 90.1704 539.409 92.0361 539.621L93.2907 539.764C94.1768 539.865 95.0226 539.367 95.3644 538.543L95.7025 537.729Z" fill="#FF9D9D" fill-opacity="0.66"/>
<path d="M567.794 821.387C567.682 819.89 569.199 818.808 570.579 819.401L580.399 823.625C581.831 824.241 582.04 826.186 580.771 827.091L571.747 833.527C570.478 834.433 568.707 833.603 568.591 832.048L567.794 821.387Z" fill="#7CFFB1" fill-opacity="0.71"/>
</svg>
